<?xml version="1.0" encoding="UTF-8"?>
<!DOCTYPE svg PUBLIC "-//W3C//DTD SVG 1.1//EN" "http://www.w3.org/Graphics/SVG/1.1/DTD/svg11.dtd">
<!-- Creator: CorelDRAW X6 -->
<svg xmlns="http://www.w3.org/2000/svg" xml:space="preserve" width="15.0306mm" height="13.019mm" version="1.1" style="shape-rendering:geometricPrecision; text-rendering:geometricPrecision; image-rendering:optimizeQuality; fill-rule:evenodd; clip-rule:evenodd"
viewBox="0 0 88 76"
 xmlns:xlink="http://www.w3.org/1999/xlink">
 <defs>
  <style type="text/css">
   <![CDATA[
    .fil0 {fill:#505F73}
    .fil1 {fill:white}
   ]]>
  </style>
 </defs>
 <g id="Слой_x0020_1">
  <metadata id="CorelCorpID_0Corel-Layer"/>
  <g id="_993180928">
   <polygon class="fil0" points="23,0 65,0 66,0 66,1 87,37 88,38 87,39 66,75 66,76 65,76 23,76 22,76 22,75 0,39 0,38 0,37 22,1 22,0 "/>
   <polygon class="fil1" points="64,2 23,2 3,38 23,74 64,74 85,38 "/>
  </g>
  <g id="_993162144">
   <path class="fil0" d="M63 36l-21 0 0 6 13 0c-2,6 -8,11 -14,11 -8,0 -15,-7 -15,-15 0,-8 7,-15 15,-15 4,0 8,2 10,5l5 -6c-4,-4 -9,-6 -15,-6 -12,0 -22,10 -22,22 0,12 10,22 22,22 11,0 20,-8 22,-18l0 -6z"/>
   <polygon class="fil0" points="76,36 72,36 72,31 68,31 68,36 64,36 64,39 68,39 68,43 72,43 72,39 76,39 "/>
  </g>
 </g>
</svg>
