<?xml version="1.0" encoding="UTF-8"?>
<!DOCTYPE svg PUBLIC "-//W3C//DTD SVG 1.1//EN" "http://www.w3.org/Graphics/SVG/1.1/DTD/svg11.dtd">
<!-- Creator: CorelDRAW X6 -->
<svg xmlns="http://www.w3.org/2000/svg" xml:space="preserve" width="15.0306mm" height="13.019mm" version="1.1" style="shape-rendering:geometricPrecision; text-rendering:geometricPrecision; image-rendering:optimizeQuality; fill-rule:evenodd; clip-rule:evenodd"
viewBox="0 0 138 120"
 xmlns:xlink="http://www.w3.org/1999/xlink">
 <defs>
  <style type="text/css">
   <![CDATA[
    .fil0 {fill:#505F73}
    .fil1 {fill:white}
   ]]>
  </style>
 </defs>
 <g id="Слой_x0020_1">
  <metadata id="CorelCorpID_0Corel-Layer"/>
  <g id="_993184448">
   <polygon class="fil0" points="36,0 102,0 103,0 104,1 137,59 138,60 137,61 104,119 103,120 102,120 36,120 34,120 34,119 1,61 0,60 1,59 34,1 34,0 "/>
   <polygon class="fil1" points="101,4 37,4 4,60 37,116 101,116 134,60 "/>
  </g>
  <path class="fil0" d="M85 79c0,0 -2,2 -6,2 -3,0 -5,-2 -5,-5l0 -19 12 0 0 -11 -12 0 0 -19 -9 0c-2,8 -7,15 -15,19l0 11 9 0 0 22c0,3 3,14 17,14 9,0 12,-6 12,-6l-3 -8z"/>
 </g>
</svg>
