<?xml version="1.0" encoding="UTF-8"?>
<!DOCTYPE svg PUBLIC "-//W3C//DTD SVG 1.1//EN" "http://www.w3.org/Graphics/SVG/1.1/DTD/svg11.dtd">
<!-- Creator: CorelDRAW X6 -->
<svg xmlns="http://www.w3.org/2000/svg" xml:space="preserve" width="15.0306mm" height="13.019mm" version="1.1" style="shape-rendering:geometricPrecision; text-rendering:geometricPrecision; image-rendering:optimizeQuality; fill-rule:evenodd; clip-rule:evenodd"
viewBox="0 0 171 148"
 xmlns:xlink="http://www.w3.org/1999/xlink">
 <defs>
  <style type="text/css">
   <![CDATA[
    .fil0 {fill:#505F73}
    .fil1 {fill:white}
   ]]>
  </style>
 </defs>
 <g id="Слой_x0020_1">
  <metadata id="CorelCorpID_0Corel-Layer"/>
  <g id="_993180064">
   <polygon class="fil0" points="44,0 127,0 128,0 129,1 170,73 171,74 170,75 129,146 128,148 127,148 44,148 43,148 42,146 1,75 0,74 1,73 42,1 43,0 "/>
   <polygon class="fil1" points="125,5 45,5 5,74 45,143 125,143 165,74 "/>
  </g>
  <path class="fil0" d="M138 46c-4,2 -8,3 -12,4 4,-3 7,-7 9,-12 -4,3 -8,4 -13,5 -4,-4 -9,-6 -15,-6 -11,0 -20,9 -20,20 0,2 1,3 1,5 -17,-1 -32,-9 -42,-21 -1,3 -2,6 -2,10 0,7 3,13 9,16 -4,0 -7,-1 -9,-2l0 0c0,10 7,18 16,20 -2,0 -4,1 -6,1 -1,0 -2,-1 -3,-1 2,8 10,14 18,14 -6,6 -15,9 -25,9 -1,0 -3,0 -4,-1 9,6 19,9 30,9 37,0 58,-30 58,-57l0 -2c3,-3 7,-7 10,-11z"/>
 </g>
</svg>
