<?xml version="1.0" encoding="UTF-8"?>
<!DOCTYPE svg PUBLIC "-//W3C//DTD SVG 1.1//EN" "http://www.w3.org/Graphics/SVG/1.1/DTD/svg11.dtd">
<!-- Creator: CorelDRAW X6 -->
<svg xmlns="http://www.w3.org/2000/svg" xml:space="preserve" width="15.0306mm" height="13.019mm" version="1.1" style="shape-rendering:geometricPrecision; text-rendering:geometricPrecision; image-rendering:optimizeQuality; fill-rule:evenodd; clip-rule:evenodd"
viewBox="0 0 116 100"
 xmlns:xlink="http://www.w3.org/1999/xlink">
 <defs>
  <style type="text/css">
   <![CDATA[
    .fil0 {fill:#505F73}
    .fil1 {fill:white}
   ]]>
  </style>
 </defs>
 <g id="Слой_x0020_1">
  <metadata id="CorelCorpID_0Corel-Layer"/>
  <g id="_993172672">
   <polygon class="fil0" points="30,0 86,0 87,0 87,1 115,49 116,50 115,51 87,100 87,100 86,100 30,100 29,100 28,100 0,51 0,50 0,49 28,1 29,0 "/>
   <polygon class="fil1" points="85,3 31,3 4,50 31,97 85,97 112,50 "/>
  </g>
  <path class="fil0" d="M35 32c2,5 5,10 8,15 1,1 1,1 2,2 1,1 2,0 2,-1 0,-1 1,-3 1,-5 0,-3 0,-5 0,-8 0,-2 -1,-4 -4,-5 -1,0 -1,-1 0,-1 1,-2 2,-2 4,-2 3,0 6,0 9,0 1,0 2,0 3,0 1,0 2,2 2,3 1,1 1,2 1,3 0,3 -1,7 -1,10 0,2 0,3 1,4 0,2 1,3 2,1 2,-1 3,-3 5,-5 2,-4 4,-8 5,-12 1,-2 1,-2 3,-2 4,0 8,0 12,0 1,0 1,0 2,0 1,0 1,1 1,2 0,3 -2,6 -3,8 -3,3 -5,7 -7,11 -1,0 -1,1 -1,1 -1,2 -1,3 0,4 2,3 4,5 7,7 1,2 2,4 4,6 1,3 0,5 -3,6 -1,0 -10,0 -10,0 -3,0 -5,-1 -6,-3 -2,-2 -4,-4 -5,-6 -1,-1 -1,-1 -2,-2 -1,-1 -3,-1 -3,1 -1,2 -1,6 -1,6 -1,2 -2,3 -4,3 -5,1 -10,0 -15,-3 -4,-2 -7,-6 -10,-10 -5,-6 -8,-13 -12,-20 0,-1 -3,-8 -3,-9 0,-1 0,-2 1,-2 0,-1 11,0 11,0 2,0 3,1 4,3z"/>
 </g>
</svg>
