<?xml version="1.0" encoding="UTF-8"?>
<!DOCTYPE svg PUBLIC "-//W3C//DTD SVG 1.1//EN" "http://www.w3.org/Graphics/SVG/1.1/DTD/svg11.dtd">
<!-- Creator: CorelDRAW X6 -->
<svg xmlns="http://www.w3.org/2000/svg" xml:space="preserve" width="15.0305mm" height="13.019mm" version="1.1" style="shape-rendering:geometricPrecision; text-rendering:geometricPrecision; image-rendering:optimizeQuality; fill-rule:evenodd; clip-rule:evenodd"
viewBox="0 0 64 56"
 xmlns:xlink="http://www.w3.org/1999/xlink">
 <defs>
  <style type="text/css">
   <![CDATA[
    .fil0 {fill:#505F73}
    .fil1 {fill:white}
   ]]>
  </style>
 </defs>
 <g id="Слой_x0020_1">
  <metadata id="CorelCorpID_0Corel-Layer"/>
  <g id="_993165056">
   <polygon class="fil0" points="17,0 48,0 48,0 48,0 64,27 64,28 64,28 48,55 48,56 48,56 17,56 16,56 16,55 0,28 0,28 0,27 16,0 16,0 "/>
   <polygon class="fil1" points="47,2 17,2 2,28 17,54 47,54 62,28 "/>
  </g>
  <path class="fil0" d="M50 27c0,10 -8,17 -17,17 -3,0 -6,-1 -8,-2l-10 3 3 -9c-1,-2 -2,-5 -2,-9 0,-9 8,-16 17,-16 9,0 17,7 17,16zm-17 -14c-8,0 -14,7 -14,14 0,4 1,6 2,9l-1 5 5 -2c2,2 5,3 8,3 8,0 14,-7 14,-15 0,-7 -6,-14 -14,-14zm8 18c0,0 0,0 0,0 -1,0 -3,-1 -3,-2 -1,0 -1,0 -1,1 0,0 -1,1 -1,1 -1,1 -1,1 -1,0 -1,0 -2,0 -4,-2 -1,-1 -2,-2 -2,-3 0,0 0,0 0,0 0,-1 1,-1 1,-1 0,0 0,0 0,-1 0,0 0,0 0,0 0,-1 -1,-3 -1,-4 0,0 -1,0 -1,0 0,0 -1,0 -1,0 0,0 -1,0 -1,0 0,1 -1,2 -1,4 0,2 1,4 1,4 1,0 3,5 7,6 5,2 5,1 5,1 1,0 3,-1 3,-2 1,-1 1,-2 0,-2z"/>
 </g>
</svg>
