<?xml version="1.0" encoding="UTF-8"?>
<!DOCTYPE svg PUBLIC "-//W3C//DTD SVG 1.1//EN" "http://www.w3.org/Graphics/SVG/1.1/DTD/svg11.dtd">
<!-- Creator: CorelDRAW X6 -->
<svg xmlns="http://www.w3.org/2000/svg" xml:space="preserve" width="15.0937mm" height="13.019mm" version="1.1" style="shape-rendering:geometricPrecision; text-rendering:geometricPrecision; image-rendering:optimizeQuality; fill-rule:evenodd; clip-rule:evenodd"
viewBox="0 0 71 61"
 xmlns:xlink="http://www.w3.org/1999/xlink">
 <defs>
  <style type="text/css">
   <![CDATA[
    .fil0 {fill:#505F73}
    .fil1 {fill:white}
   ]]>
  </style>
 </defs>
 <g id="Слой_x0020_1">
  <metadata id="CorelCorpID_0Corel-Layer"/>
  <g id="_993179744">
   <polygon class="fil0" points="18,0 53,0 53,0 53,0 71,30 71,31 71,31 53,61 53,61 53,61 18,61 18,61 17,61 0,31 0,31 0,30 17,0 18,0 "/>
   <polygon class="fil1" points="52,2 19,2 2,31 19,59 52,59 69,31 "/>
  </g>
  <g id="_993161792">
   <polygon class="fil0" points="19,0 53,0 53,0 54,0 71,30 71,31 71,31 54,61 53,61 53,61 19,61 18,61 18,61 1,31 0,31 1,30 18,0 18,0 "/>
   <polygon class="fil1" points="52,2 19,2 3,31 19,59 52,59 69,31 "/>
  </g>
  <g id="_993163136">
   <path class="fil0" d="M39 36c0,0 -1,0 -1,1l0 6c0,1 1,1 1,1 1,0 1,-1 1,-2l0 -4c0,-1 0,-2 -1,-2z"/>
   <path class="fil0" d="M46 36c0,0 -1,1 -1,2l0 1 2 0 0 -1c0,-1 0,-2 -1,-2z"/>
   <path class="fil0" d="M50 29c-1,-1 -2,-1 -3,-1 -5,-1 -11,-1 -11,-1l0 0c0,0 -7,0 -12,1 0,0 -1,0 -3,1 -1,1 -1,3 -1,3 0,0 0,3 0,5l0 3c0,2 0,5 0,5 0,0 0,2 1,3 2,1 3,1 4,1 2,1 11,1 11,1 0,0 6,0 11,-1 1,0 2,0 3,-1 1,-1 1,-3 1,-3 0,0 1,-3 1,-5l0 -3c0,-2 -1,-5 -1,-5 0,0 0,-2 -1,-3zm-23 16l-2 0 0 -12 -3 0 0 -2 7 0 0 2 -2 0 0 12zm7 0l-2 0 0 -1c0,1 -1,2 -2,2 0,0 -1,-1 -1,-1 0,-1 0,-1 0,-2l0 -8 2 0 0 8c0,0 0,0 0,0 0,1 0,1 0,1 1,0 1,0 1,-1l0 -8 2 0 0 10zm8 -3c0,1 0,2 0,2 -1,1 -1,2 -2,2 -1,0 -1,-1 -2,-2l0 1 -2 0 0 -14 2 0 0 5c1,-1 1,-1 2,-1 1,0 1,0 2,1 0,0 0,1 0,2l0 4zm7 -2l-4 0 0 2c0,1 1,2 1,2 1,0 1,0 1,-1 0,0 0,0 0,-1l2 0 0 0c0,1 0,1 0,1 0,1 0,1 0,1 -1,1 -2,2 -3,2 -1,0 -2,-1 -2,-2 -1,0 -1,-1 -1,-2l0 -4c0,-1 0,-2 1,-2 0,-1 1,-1 2,-1 1,0 2,0 2,1 1,0 1,1 1,2l0 2z"/>
   <path class="fil0" d="M31 26l0 -6 2 -8 -2 0 -1 5 -2 -5 -2 0c0,1 1,2 1,4 1,2 1,3 1,4l0 6 3 0z"/>
   <path class="fil0" d="M36 26c1,0 1,0 2,-1 0,0 1,-1 1,-2l0 -4c0,-1 -1,-2 -1,-3 -1,0 -1,-1 -2,-1 -1,0 -2,1 -3,1 0,1 0,2 0,3l0 4c0,1 0,2 0,2 1,1 2,1 3,1zm-1 -7c0,-1 0,-2 1,-2 0,0 1,1 1,2l0 4c0,1 -1,2 -1,2 -1,0 -1,-1 -1,-2l0 -4z"/>
   <path class="fil0" d="M46 26l0 -11 -2 0 0 9c-1,0 -1,1 -1,1 -1,0 -1,-1 -1,-1 0,0 0,0 0,-1l0 -8 -2 0 0 9c0,1 0,1 0,2 1,0 1,0 2,0 0,0 1,0 2,-1l0 1 2 0z"/>
  </g>
 </g>
</svg>
